<svg width="270" height="39" viewBox="0 0 270 39" fill="none" xmlns="http://www.w3.org/2000/svg">
<path d="M19.1 4.40594L22.7406 13.159L23.0924 14.0049L24.0057 14.0781L33.4553 14.8357L26.2557 21.0029L25.5599 21.5989L25.7725 22.4901L27.9721 31.7114L19.8819 26.7699L19.1 26.2923L18.3181 26.7699L10.2279 31.7114L12.4275 22.4901L12.6401 21.5989L11.9443 21.0029L4.7447 14.8357L14.1943 14.0781L15.1076 14.0049L15.4594 13.159L19.1 4.40594Z" fill="#F1C644" stroke="#F1C644" stroke-width="3"/>
<path d="M77.05 4.24795L80.9522 13.1832L81.3132 14.0099L82.2127 14.0786L92.1676 14.8386L84.6399 20.9798L83.9015 21.5822L84.1331 22.5065L86.4575 31.7871L77.8042 26.7534L77.05 26.3147L76.2958 26.7534L67.6425 31.7871L69.967 22.5065L70.1985 21.5822L69.4601 20.9798L61.9324 14.8386L71.8874 14.0786L72.7868 14.0099L73.1478 13.1832L77.05 4.24795Z" fill="#F1C644" stroke="#F1C644" stroke-width="3"/>
<path d="M135 4.40594L138.641 13.159L138.992 14.0049L139.906 14.0781L149.355 14.8357L142.156 21.0029L141.46 21.5989L141.672 22.4901L143.872 31.7114L135.782 26.7699L135 26.2923L134.218 26.7699L126.128 31.7114L128.328 22.4901L128.54 21.5989L127.844 21.0029L120.645 14.8357L130.094 14.0781L131.008 14.0049L131.359 13.159L135 4.40594Z" fill="#F1C644" stroke="#F1C644" stroke-width="3"/>
<path d="M192.95 4.24795L196.852 13.1832L197.213 14.0099L198.113 14.0786L208.068 14.8386L200.54 20.9798L199.802 21.5822L200.033 22.5065L202.358 31.7871L193.704 26.7534L192.95 26.3147L192.196 26.7534L183.542 31.7871L185.867 22.5065L186.098 21.5822L185.36 20.9798L177.832 14.8386L187.787 14.0786L188.687 14.0099L189.048 13.1832L192.95 4.24795Z" fill="#F1C644" stroke="#F1C644" stroke-width="3"/>
<path d="M250.9 4.40594L254.541 13.159L254.892 14.0049L255.806 14.0781L265.255 14.8357L258.056 21.0029L257.36 21.5989L257.572 22.4901L259.772 31.7114L251.682 26.7699L250.9 26.2923L250.118 26.7699L242.028 31.7114L244.228 22.4901L244.44 21.5989L243.744 21.0029L236.545 14.8357L245.994 14.0781L246.908 14.0049L247.259 13.159L250.9 4.40594Z" fill="#F1C644" stroke="#F1C644" stroke-width="3"/>
</svg>
